<svg xmlns="http://www.w3.org/2000/svg" viewBox="0 0 1879.57 1879.57"><defs><style>.cls-1,.cls-4{fill:none;}.cls-1,.cls-2,.cls-4,.cls-5{stroke:#131f20;stroke-linecap:round;stroke-linejoin:round;}.cls-1,.cls-2{stroke-width:16.51px;}.cls-2,.cls-3,.cls-5{fill:#131f20;}.cls-4{stroke-width:8.25px;}.cls-5{stroke-width:1.65px;}</style></defs><g id="Layer_2" data-name="Layer 2"><g id="Layer_1-2" data-name="Layer 1"><path class="cls-1" d="M408.7,1346.37v-519a44.76,44.76,0,0,1,44.77-44.77h0a44.77,44.77,0,0,1,44.78,44.77v614.8"/><path class="cls-1" d="M498.25,1106.23h9.06a37.93,37.93,0,0,0,37.93-37.92V931.76a29.5,29.5,0,0,1,29.5-29.5h0a29.5,29.5,0,0,1,29.5,29.5V1072.1a103.68,103.68,0,0,1-103.67,103.67h-2.32"/><path class="cls-1" d="M408.7,1091.62h0a42.14,42.14,0,0,1-42.14-42.14V926.71a30.62,30.62,0,0,0-30.62-30.63h0a30.63,30.63,0,0,0-30.63,30.63v126.71a103.39,103.39,0,0,0,103.39,103.39h0"/><path class="cls-1" d="M574.74,902.26V1068a76.5,76.5,0,0,1-76.49,76.49h0"/><path class="cls-1" d="M335.93,896.08v155.86a72.77,72.77,0,0,0,72.76,72.77h0"/><path class="cls-1" d="M437.35,1381.25V812.36s-.47-24.23,7.63-29"/><path class="cls-1" d="M467.66,1413.51V812.36s1.16-20.58-4.06-29"/><path class="cls-1" d="M1470.87,1346.37v-519a44.76,44.76,0,0,0-44.77-44.77h0a44.77,44.77,0,0,0-44.78,44.77v614.81"/><path class="cls-1" d="M1381.32,1106.23h-9.06a37.93,37.93,0,0,1-37.93-37.92V931.76a29.5,29.5,0,0,0-29.5-29.5h0a29.5,29.5,0,0,0-29.5,29.5V1072.1A103.68,103.68,0,0,0,1379,1175.77h2.32"/><path class="cls-1" d="M1470.87,1091.62h0a42.14,42.14,0,0,0,42.15-42.14V926.71a30.62,30.62,0,0,1,30.62-30.63h0a30.63,30.63,0,0,1,30.63,30.63v126.71a103.39,103.39,0,0,1-103.4,103.39h0"/><path class="cls-1" d="M1304.83,902.26V1068a76.5,76.5,0,0,0,76.49,76.49h0"/><path class="cls-1" d="M1543.64,896.08v155.86a72.77,72.77,0,0,1-72.77,72.77h0"/><path class="cls-1" d="M1442.22,1381.25V812.36s.47-24.23-7.63-29"/><path class="cls-1" d="M1411.91,1413.51V812.36s-1.16-20.58,4.06-29"/><path class="cls-1" d="M1219.53,866.4s-41.49,16-77.62-3.84-49.32-45.19-53.51-72.3,5.67-44.68,6.6-56.79.49-25.41,12.52-28.13,20.34-.46,28.27-2.65,38.63-12.46,72.5,8,55.8,56.94,53.51,86.67-9.58,37.85-8.9,43.41,2.44,16.39-3.67,22.5C1241,871.55,1223.54,865.07,1219.53,866.4Z"/><path class="cls-1" d="M1085.07,637.77s-42.23,11.7-74.82-10.76-42.21-48.16-42.9-74.74,11-42.68,13.46-54.31,3.63-24.51,15.64-26,19.79,1.4,27.75,0,39-8.54,69.33,14.32,47,60.1,41.12,88.64-14,35.72-14,41.16,1.83,16.38-6.88,22.42C1104.48,644.88,1089.12,636.85,1085.07,637.77Z"/><path class="cls-1" d="M780.48,700.26s-37.42-22.81-43.32-62,6.27-63.73,25.2-82.41,38.7-21.12,48.83-27.31,20.37-14.12,29.7-6.41,12.52,15.39,19,20.25,32.91,22.63,37,60.37-11.68,75.42-36.55,90.62-35.64,14.22-39.63,17.91-12,12-21.92,9.72C785.9,718.05,783.92,702.59,780.48,700.26Z"/><path class="cls-1" d="M637.12,897.22S609,865.66,614.51,827.88s23.68-57.09,46.4-69,41.66-8.64,52.75-11.51,25.43-4.39,31.9,3.48c7.41,9,4.56,16.67,9.16,23s24,30.14,17.17,66.12-31.95,66.36-59.18,73.4-36.89,3.13-41.61,5.42-15.73,6.85-23,3.48C637.92,917.53,639.64,900.34,637.12,897.22Z"/><path class="cls-1" d="M802,423.4A94.12,94.12,0,0,1,774.37,506a94.2,94.2,0,0,1-24.24-152.48A94.09,94.09,0,0,1,802,423.4Z"/><path class="cls-1" d="M690.72,444.19a94.1,94.1,0,0,1,56.53,66.19,94.19,94.19,0,0,1-143.16-57.81A94.08,94.08,0,0,1,690.72,444.19Z"/><path class="cls-1" d="M636.93,606.34a86.82,86.82,0,0,1,32.53,73.43A86.92,86.92,0,0,1,558.12,590.9,86.81,86.81,0,0,1,636.93,606.34Z"/><path class="cls-1" d="M559.18,695.38A81.8,81.8,0,0,1,631,719.15a81.87,81.87,0,0,1-132.47,21.44A81.79,81.79,0,0,1,559.18,695.38Z"/><path class="cls-1" d="M724.54,945.78a90.15,90.15,0,0,1,77.74-30.11,90.2,90.2,0,0,1-97.62,111.06A90.1,90.1,0,0,1,724.54,945.78Z"/><path class="cls-1" d="M1080,988.66a91.82,91.82,0,0,1-13.59-83.84,91.9,91.9,0,0,1,90.06,120.75A91.81,91.81,0,0,1,1080,988.66Z"/><path class="cls-1" d="M948.07,367a95.35,95.35,0,0,1,68-56.15,95.44,95.44,0,0,1-61,144.06A95.33,95.33,0,0,1,948.07,367Z"/><path class="cls-1" d="M1139.39,384.82a95.39,95.39,0,0,1,85.7-20.84,95.43,95.43,0,0,1-117.75,103A95.3,95.3,0,0,1,1139.39,384.82Z"/><path class="cls-1" d="M1235.2,570.14a102.18,102.18,0,0,1,94.49,1.26A102.25,102.25,0,0,1,1180,646.81,102.14,102.14,0,0,1,1235.2,570.14Z"/><path class="cls-1" d="M1321.71,680.62a82.47,82.47,0,0,1,56.4,51.35,82.54,82.54,0,0,1-130.79-34.57A82.42,82.42,0,0,1,1321.71,680.62Z"/><path class="cls-1" d="M935.8,713.83a91.61,91.61,0,0,1,79.05-30.49,91.67,91.67,0,0,1-99.38,112.72A91.59,91.59,0,0,1,935.8,713.83Z"/><path class="cls-1" d="M844.88,423.12a84.94,84.94,0,0,1-19.77-76A85,85,0,0,1,918.5,450.5,84.91,84.91,0,0,1,844.88,423.12Z"/><line class="cls-1" x1="528.38" y1="1335.49" x2="1349.32" y2="1335.49"/><path class="cls-1" d="M893,1607s-2.86-68.63,45.82-125.27c71.22-82.87,215.79-116.1,243.17-123.48"/><path class="cls-1" d="M970.88,1607.73s-24-66.89,27.81-126c56.48-64.48,156-100.48,269.51-121"/><path class="cls-1" d="M1054.08,1598.88s-32.76-30.07-25-78.52c10.11-63.5,140.37-140.85,320.28-159.58"/><path class="cls-1" d="M1128.61,1581.58s-44.73-36.75-24.53-84c22.41-52.47,133.42-102.48,245.24-111.47"/><path class="cls-1" d="M1225.24,1544.8s-38.18-14.89-38.17-46.32c0-36,66.17-82.64,162.25-91.35"/><path class="cls-1" d="M1269.34,1521.91s-28.12-24.37-8.8-54.37c21.35-33.15,88.78-37.26,88.78-37.26"/><path class="cls-1" d="M1301.54,1502.42s-10.46-22.47,2.07-37.13c15.37-18,45.71-19.38,45.71-19.38"/><path class="cls-1" d="M796.69,1593.26s4.8-52.8,58.72-108.16c47.2-48.47,167.73-113.37,242.92-124.32"/><path class="cls-1" d="M705.86,1566.56s35.76-56.6,106.56-106.33,180.37-93.55,215.41-99.45"/><path class="cls-1" d="M634.93,1535.25s60.54-43.87,118.54-78.39c62.32-37.08,165.15-86,211.88-96.08"/><path class="cls-1" d="M567.58,1495.55s194.27-90.1,319.86-134.77"/><path class="cls-1" d="M510.43,1452.61s178.51-45.48,305.79-91.83"/><line class="cls-1" x1="528.66" y1="1394.09" x2="761.01" y2="1360.78"/><line class="cls-1" x1="528.66" y1="1360.78" x2="669.63" y2="1360.78"/><path class="cls-1" d="M819.59,1335.49s.42-15.59,17.7-20.23,31.6,2.11,33.71,0,21.49-21.49,27-66.16.42-216.91,0-221.82-14.75-24.72-22.75-34.41-27-24.44-34.14-35.82-27.81-86.39-30.34-96.51,39.19,67.43,44.88,76.28,44.88,31.61,44.88,31.61.43-26.13,0-36.25-55.63-86.35-64.48-98-24.82-36.89-31.16-54.17S786.72,751,771.12,736.64s-43.26-28.8-46.92-32.17-17.41-44.11-20.51-54.22"/><line class="cls-1" x1="669.63" y1="682.78" x2="724.2" y2="704.47"/><path class="cls-1" d="M913.39,896.08s13.94-21.35,22.37-28.09,54.51-37.65,57.88-40.46,51.81-92.15,57.93-103.39,83.11-64.62,92.66-73.89,30-85.69,35.78-111.54"/><path class="cls-1" d="M1180,646.82s-27.92,2-35.78,3.43"/><path class="cls-1" d="M1024,826.6s32.4-103.74,42.61-116.87"/><path class="cls-1" d="M1066.59,821.91s-58.91,29.22-67.33,33.15-28.48,27.54-31.94,34.84-5.71,89.53-5.71,89.53,36-31.09,43.83-39.52,39.84-73.41,39.84-73.41"/><line class="cls-1" x1="1023.98" y1="826.6" x2="1066.59" y2="821.91"/><path class="cls-1" d="M1069.49,1335.49s-5-16-24.44-23.18-32.45-2.1-42.56-6.32-24.87-31.61-29.08-74.59,0-183.32,0-183.32-.42-25.71,8.43-38.35S1020.19,969.27,1024,963s14.75-63.36,16-66.87,54-8.15,63.64-9.41,38.35,11.1,38.35,11.1"/><path class="cls-1" d="M911,893.83s-63.74-87.43-68.27-97.19c-3.8-8.16-1.07-42.72-1.07-42.72"/><line class="cls-1" x1="792.14" y1="758.08" x2="843.77" y2="798.49"/><path class="cls-1" d="M891.24,866.5C890.81,865.9,887,748.36,887,745s37.1-67.17,52.67-93.1c9.7-16.14-14.32-107-16.43-115s29.09-76.68,31.82-81.95"/><path class="cls-1" d="M918.5,450.5s8.88,50.38,11.25,63.33"/><path class="cls-1" d="M923.26,536.88s-33.72-27.81-30.34-25.7"/><line class="cls-1" x1="961.61" y1="638.03" x2="939.69" y2="651.93"/><path class="cls-1" d="M926.93,877.38s-24.64-58.36-23.9-64c.51-3.92,12-19.46,12-19.46"/><path class="cls-1" d="M653.54,1305.57V1129a19.81,19.81,0,0,1,19.81-19.81h0A19.81,19.81,0,0,1,693.16,1129v176.16"/><path class="cls-1" d="M693.16,1256.26h17.07a28,28,0,0,0,28-28v-50.89A11.27,11.27,0,0,0,727,1166.08h0a11.26,11.26,0,0,0-11.27,11.27v47.41a7.06,7.06,0,0,1-7.06,7.06H693.16"/><path class="cls-1" d="M653.54,1260.48H633.11a25.5,25.5,0,0,1-25.5-25.5v-53.63a11.48,11.48,0,0,1,11.48-11.48h0a11.48,11.48,0,0,1,11.49,11.48v49.73a6.21,6.21,0,0,0,6.21,6.22h16.75"/><path class="cls-1" d="M1189.27,1305.57V1129a19.81,19.81,0,0,1,19.81-19.81h0a19.8,19.8,0,0,1,19.8,19.81v176.16"/><path class="cls-1" d="M1228.88,1256.26H1246a28,28,0,0,0,28-28v-50.89a11.27,11.27,0,0,0-11.28-11.27h0a11.27,11.27,0,0,0-11.27,11.27v47.37a7.1,7.1,0,0,1-7.1,7.1h-15.45"/><path class="cls-1" d="M1189.27,1260.48h-20.44a25.5,25.5,0,0,1-25.5-25.5v-53.63a11.49,11.49,0,0,1,11.49-11.48h0a11.48,11.48,0,0,1,11.48,11.48v50.34a5.61,5.61,0,0,0,5.61,5.61h17.36"/><polyline class="cls-1" points="528.38 1277.05 574.74 1261.78 620.53 1290.26 620.53 1302.9 528.38 1302.9"/><path class="cls-1" d="M1124.93,1264.69c-8.24-12.3-9.58-22.53-9.36-53.52.28-38.91,1.12-67.84,1.12-67.84a204,204,0,0,0-36.52-1.7l-18.44,24.45c-18.44,24.44-59.66,45.09-59.66,45.09s-2,44.95,17.26,59.63,77.42,25.92,77.42,25.92,35.12,4.21,40.73,5.06,20.23,1.68,20.23,1.68v-16.85s-26.83-4.78-37.23-30.35"/><path class="cls-1" d="M1008,1242.36c1.68,0,52.69-16.22,77-42.56,30.06-32.6,26.47-55.28,26.47-55.28"/><path class="cls-1" d="M1018.5,1264.69s46.48-10.06,68.27-24c24.78-15.87,27.4-28,27.4-28"/><path class="cls-1" d="M1056.76,1285.34c4.31-.84,39.8-8.19,60.54-31.79"/><path class="cls-1" d="M861.59,1233.22c-2,18.83-5.76,27.26-5.76,27.26-4.49,2.53-47.06,19.38-74.59,29.5s-59,10.67-59,10.67v-15.31s42.14-24,59-38.07,27-21.35,28.65-21.35,43.27,5.62,51.7,7.3"/><path class="cls-2" d="M1349.32,1223.39c-3.79-4.21-45-25.44-45-25.44s5.42,41.64-7.87,62.53a50.37,50.37,0,0,1-36.93,22.89l-.16,25,89.91,1.58v-86.53Z"/><path class="cls-3" d="M489.22,671.15,470,651.93l19.21-19.21,19.21,19.21Z"/><path class="cls-3" d="M453.47,736.22l-17.58-17.58,17.58-17.58,17.58,17.58Z"/><path class="cls-3" d="M577.16,556.1,558,536.88l19.21-19.21,19.21,19.21Z"/><path class="cls-3" d="M675.67,408.88l-19.21-19.21,19.21-19.22,19.21,19.22Z"/><path class="cls-3" d="M686.38,602.73l-19.21-19.21,19.21-19.21,19.21,19.21Z"/><path class="cls-3" d="M351.73,805.62l-16.19-16.19,16.19-16.19,16.19,16.19Z"/><path class="cls-3" d="M560.5,841.58l-13.1-13.1,13.1-13.1,13.1,13.1Z"/><path class="cls-3" d="M918.73,336.43,903,320.67l15.75-15.75,15.75,15.75Z"/><path class="cls-3" d="M1092.21,368l-15.75-15.75,15.75-15.75L1108,352.2Z"/><path class="cls-3" d="M1067.33,421.05l-15.76-15.75,15.76-15.75,15.75,15.75Z"/><path class="cls-3" d="M1297.85,520.24l-20.11-20.11L1297.85,480,1318,500.13Z"/><path class="cls-3" d="M1449,719.34l-20.11-20.11L1449,679.12l20.11,20.11Z"/><path class="cls-3" d="M1198.86,944l-15.72-15.72,15.72-15.71,15.72,15.71Z"/><path class="cls-3" d="M1320.32,840l-13.44-13.43,13.44-13.44,13.43,13.44Z"/><path class="cls-3" d="M1267.36,441.08l-15-15,15-15,15,15Z"/><path class="cls-3" d="M1391.74,663.74l-15-15,15-15,15,15Z"/><line class="cls-1" x1="1051.16" y1="1044.71" x2="1051.16" y2="1074.63"/><line class="cls-1" x1="1036.2" y1="1059.67" x2="1066.12" y2="1059.67"/><line class="cls-1" x1="815.44" y1="1053.48" x2="815.44" y2="1090.43"/><line class="cls-1" x1="796.97" y1="1071.96" x2="833.92" y2="1071.96"/><line class="cls-1" x1="989.14" y1="1119.44" x2="971.61" y2="1144.52"/><path class="cls-3" d="M613.44,729.9l-.05-.06-.2-.08-.48-.18c-.3-.12-.71-.23-1.07-.34-.72-.25-1.53-.44-2.31-.66s-1.6-.39-2.42-.58-1.64-.38-2.48-.52L601.9,727l-2.57-.38c-1.71-.28-3.45-.44-5.2-.62a148.24,148.24,0,0,0-21.43-.4c-3.6.3-7.26.48-10.87,1-1.82.25-3.66.42-5.47.73l-5.44,1c-.91.16-1.83.31-2.74.49l-2.7.62L540,730.68c-3.61.92-7.19,2-10.82,3,3.23-1.88,6.45-3.86,9.76-5.7l5-2.64,2.53-1.32c.85-.42,1.72-.8,2.58-1.21l5.21-2.4c1.74-.79,3.54-1.45,5.31-2.19,3.55-1.51,7.22-2.68,10.89-4a162.58,162.58,0,0,1,22.91-5.56c2-.32,3.95-.64,6-.84l3-.34,3.05-.23c1-.09,2-.13,3.09-.16s2.07-.09,3.14-.07,2.11,0,3.23,0c.57,0,1.08,0,1.69.08l.9.08c.16,0,.26,0,.49,0l.62.09,5.49.77a12.75,12.75,0,1,1-10.68,21.75Z"/><path class="cls-3" d="M896.85,445.68a6.47,6.47,0,0,0-.13-1c-.06-.38-.15-.81-.24-1.23-.16-.84-.35-1.7-.57-2.57-.39-1.73-.93-3.48-1.41-5.24-1.09-3.5-2.29-7-3.69-10.48a133.59,133.59,0,0,0-10.13-20.27,135.31,135.31,0,0,0-13.57-18.71L865.2,384l-1-1.12-1-1-4.11-4.22c-1.34-1.45-2.85-2.71-4.32-4l-4.44-4,5.28,2.79c1.75.94,3.57,1.82,5.24,2.92l5.13,3.18,1.29.81,1.24.87,2.47,1.76a144.38,144.38,0,0,1,18.74,15.8,147.44,147.44,0,0,1,16.2,19c2.48,3.41,4.78,7,7,10.63,1.06,1.87,2.16,3.71,3.16,5.68.51,1,1,2,1.49,3,.25.51.49,1,.73,1.57s.47,1,.77,1.82L920.4,443a12.2,12.2,0,0,1-22.89,8.43A12.38,12.38,0,0,1,896.85,445.68Z"/><path class="cls-3" d="M763.79,490.17a13.15,13.15,0,0,0,.43-1.3c.16-.47.3-1,.44-1.5.29-1,.58-2.06.83-3.13.55-2.12,1-4.29,1.47-6.45s.84-4.38,1.22-6.59.7-4.43,1-6.66a183.1,183.1,0,0,0,1.52-27.15l0-3.43c0-1.15-.13-2.28-.18-3.42l-.44-6.87-.81-6.85c-.15-1.15-.23-2.31-.45-3.44l-.6-3.41a169.08,169.08,0,0,0-7-27.07,172,172,0,0,1,12.55,25.51l1.34,3.34c.45,1.11.78,2.26,1.17,3.39l2.29,6.85,1.92,7c.31,1.16.68,2.33.92,3.5l.79,3.55a197.37,197.37,0,0,1,4.34,28.89c.2,2.45.29,4.9.44,7.37s.15,4.93.17,7.41,0,5-.14,7.5c0,1.25-.11,2.53-.2,3.81,0,.64-.08,1.28-.15,2s-.11,1.29-.23,2.14l-.18,1.31A11.72,11.72,0,1,1,763,493.13,12.57,12.57,0,0,1,763.79,490.17Z"/><path class="cls-3" d="M723.83,512.72c.06,0-.26-.5-.43-.8s-.47-.73-.71-1.1c-.47-.74-1.06-1.5-1.61-2.26s-1.18-1.52-1.79-2.28-1.23-1.52-1.91-2.24l-2-2.22c-.69-.73-1.42-1.43-2.13-2.15s-1.4-1.46-2.17-2.13l-2.27-2.05a131.54,131.54,0,0,0-20.3-14.58c-3.72-2-7.43-4.16-11.36-5.86l-2.93-1.36c-1-.46-2-.93-3-1.29l-6-2.37c-1-.38-2-.82-3.05-1.15l-3.1-1-6.24-2c-4.21-1.18-8.48-2.17-12.77-3.27,4.39.14,8.83.18,13.26.43l6.65.6,3.34.31c1.12.1,2.21.32,3.32.47l6.66,1c1.13.15,2.22.4,3.32.64l3.31.73c4.46.87,8.8,2.23,13.21,3.48a146.76,146.76,0,0,1,25.59,10.95l3.09,1.75c1,.58,2,1.25,3,1.88s2,1.27,3,2l3,2.09c1,.68,2,1.45,2.93,2.21s1.94,1.5,2.88,2.34,1.91,1.62,2.86,2.55c.48.47.94.86,1.44,1.39s.91.9,1.62,1.77a11.55,11.55,0,1,1-18.73,13.52Z"/><path class="cls-3" d="M943.55,446.49c.11-.87.22-1.43.33-2.11l.37-1.91c.25-1.26.51-2.5.79-3.73.55-2.47,1.15-4.89,1.8-7.3q1.93-7.21,4.37-14.22A186.57,186.57,0,0,1,963,390.16a146.45,146.45,0,0,1,7.54-12.59,128.19,128.19,0,0,1,8.73-11.69,113.7,113.7,0,0,1,10-10.49,107.61,107.61,0,0,1,11.15-8.95A105,105,0,0,0,984,369.14a118.19,118.19,0,0,0-5.85,12.5c-1.72,4.26-3.24,8.58-4.52,13a171.77,171.77,0,0,0-5.61,26.68c-.59,4.49-1,9-1.28,13.47-.12,2.24-.22,4.48-.25,6.69,0,1.11,0,2.21,0,3.29l0,1.61c0,.49,0,1.1.07,1.41a11.72,11.72,0,0,1-23.24,3.1,11.24,11.24,0,0,1,0-3Z"/><path class="cls-3" d="M584.85,609.12c8.24,3.17,16.34,6.75,24.36,10.58s15.92,8,23.68,12.57a197.72,197.72,0,0,1,22.69,15.42,114.87,114.87,0,0,1,10.66,9.52,81.45,81.45,0,0,1,9.69,11.7l.25.38a11.65,11.65,0,1,1-19.35,13,11.25,11.25,0,0,1-1.22-2.36,58.62,58.62,0,0,0-5.1-10,95.66,95.66,0,0,0-7.08-9.87A183.38,183.38,0,0,0,626,641.54c-6.3-5.9-13-11.53-19.83-16.93S592.19,614,584.85,609.12Z"/><path class="cls-3" d="M1104.49,455c.46-.69.83-1.18,1.21-1.71s.77-1,1.15-1.51c.76-1,1.52-2,2.3-2.91,1.53-1.91,3.12-3.73,4.71-5.55s3.25-3.56,4.87-5.32l5-5.1a194.42,194.42,0,0,1,21.71-18.33c3.75-2.85,7.76-5.34,11.67-7.89,2-1.22,4.07-2.35,6.08-3.52l3-1.72,3.14-1.55c2.09-1,4.15-2.08,6.25-3.05l6.42-2.65c1.07-.43,2.12-.9,3.2-1.29l3.28-1.08,6.52-2.14-5.91,3.45-2.93,1.71c-1,.6-1.89,1.28-2.82,1.91l-5.58,3.83c-1.8,1.36-3.55,2.79-5.31,4.17l-2.63,2.08-2.51,2.24c-1.66,1.5-3.34,3-5,4.48-3.14,3.18-6.33,6.24-9.23,9.61A181.1,181.1,0,0,0,1137.07,444l-3.52,5.51c-1.1,1.88-2.23,3.73-3.28,5.61s-2.09,3.77-3,5.67c-.5.94-1,1.88-1.4,2.82-.23.47-.44.94-.64,1.38s-.42.94-.51,1.23a11.73,11.73,0,1,1-22.27-7.36,11.57,11.57,0,0,1,1.32-2.74Z"/><path class="cls-3" d="M1182.36,634.17c.2-.24.31-.37.44-.51l.38-.42.72-.77c.47-.5.94-1,1.41-1.45.94-.95,1.89-1.86,2.84-2.75,1.9-1.77,3.82-3.48,5.78-5.13,3.91-3.3,8-6.36,12.09-9.24a166.3,166.3,0,0,1,26-14.85c4.51-2.09,9.13-3.88,13.77-5.52s9.37-3,14.11-4.16a150.72,150.72,0,0,1,28.7-4,148.29,148.29,0,0,0-26.79,9.47c-4.25,2-8.39,4.19-12.39,6.57s-7.89,4.91-11.61,7.65a153.09,153.09,0,0,0-20.63,18.08c-3.12,3.29-6.11,6.68-8.87,10.19-1.39,1.75-2.71,3.53-4,5.32-.63.89-1.24,1.79-1.83,2.68l-.84,1.32-.38.63-.17.29c-.05.1-.11.21-.09.2a11.56,11.56,0,0,1-18.7-13.58Z"/><path class="cls-3" d="M1256.86,688.23l.92.1.82.11,1.63.23c1.06.16,2.13.31,3.18.49,2.1.35,4.18.71,6.25,1.12,4.14.78,8.24,1.69,12.31,2.67q12.19,3,24,7.12a191.06,191.06,0,0,1,22.82,9.87,130,130,0,0,1,20.55,13.38,128.13,128.13,0,0,0-22.61-8,185.28,185.28,0,0,0-23.35-4q-11.77-1.17-23.52-1.18c-3.91,0-7.81.09-11.69.29q-2.91.13-5.78.36c-1,.06-1.9.16-2.85.24l-1.39.14-.68.08-.59.08a11.67,11.67,0,1,1-.45-23.16Z"/><path class="cls-3" d="M1077.86,900.55c.56.5,1,.91,1.43,1.33s.88.85,1.29,1.27c.84.84,1.69,1.67,2.49,2.52,1.64,1.68,3.22,3.39,4.77,5.11s3.06,3.47,4.58,5.2,2.94,3.55,4.4,5.31a237.81,237.81,0,0,1,15.92,22.32,187.71,187.71,0,0,1,12.85,23.94l2.66,6.21c.81,2.09,1.53,4.23,2.29,6.33l1.13,3.15c.33,1.06.61,2.15.92,3.22l1.8,6.41-3.13-5.85c-.53-1-1-1.95-1.57-2.9l-1.76-2.8c-1.18-1.86-2.3-3.73-3.51-5.54l-3.82-5.33a179.26,179.26,0,0,0-16.94-19.69,220.54,220.54,0,0,0-19.12-17.24l-5-3.93c-1.72-1.25-3.4-2.55-5.14-3.76s-3.46-2.42-5.21-3.57c-.87-.59-1.74-1.13-2.61-1.68-.44-.29-.86-.55-1.29-.8s-.86-.53-1.18-.69a11.69,11.69,0,1,1,13-19.21Z"/><path class="cls-3" d="M800.36,933.28a11.37,11.37,0,0,0-1.11.51c-.41.19-.87.45-1.3.67-.88.45-1.77.95-2.66,1.46s-1.79,1-2.68,1.56-1.79,1-2.67,1.63c-1.76,1.14-3.55,2.25-5.29,3.47l-2.62,1.8-2.58,1.88a217.89,217.89,0,0,0-19.89,16.49c-1.61,1.46-3.11,3-4.68,4.54l-2.33,2.29c-.78.77-1.5,1.58-2.26,2.37l-4.5,4.79c-1.45,1.64-2.86,3.31-4.31,5-2.94,3.28-5.56,6.81-8.33,10.28-1.41,1.71-2.62,3.56-3.94,5.34l-3.88,5.43,2.63-6.14c.9-2,1.7-4.14,2.72-6.13,2-4,3.82-8.12,6-12,1.07-2,2.13-4,3.23-6l3.47-5.83c.58-1,1.14-2,1.76-2.91l1.85-2.85c1.26-1.89,2.45-3.84,3.77-5.7a232.56,232.56,0,0,1,16.92-21.72L770,930.9l2.38-2.54c1.58-1.72,3.25-3.37,4.91-5,.81-.85,1.7-1.64,2.55-2.46s1.72-1.63,2.63-2.43,1.78-1.61,2.74-2.4c.48-.4.91-.79,1.44-1.2s.94-.78,1.67-1.3l1.9-1.36A11.88,11.88,0,1,1,804,931.51,12,12,0,0,1,800.36,933.28Z"/><path class="cls-3" d="M907.91,781c.41-.83.7-1.32,1-1.92s.65-1.12,1-1.68c.65-1.1,1.32-2.15,2-3.19s1.35-2.08,2.05-3.08,1.37-2,2.09-3c1.44-2,2.83-3.93,4.35-5.81s3-3.79,4.53-5.6,3.07-3.66,4.7-5.4,3.16-3.55,4.86-5.21,3.31-3.39,5-5l5.17-4.83L946,735l1.34-1.14,2.68-2.29c1.79-1.52,3.54-3.06,5.42-4.47l5.53-4.28c1.87-1.4,3.81-2.7,5.7-4,3.74-2.74,7.75-5.1,11.63-7.57,1.92-1.26,4-2.3,6-3.44l6-3.34L985.09,709c-1.71,1.52-3.48,2.94-5.08,4.57-3.26,3.19-6.59,6.25-9.61,9.64-1.53,1.67-3.1,3.28-4.58,5l-4.35,5.16c-1.48,1.68-2.82,3.49-4.19,5.26l-2,2.66-1,1.33-1,1.37-3.82,5.47c-1.22,1.85-2.4,3.74-3.59,5.6s-2.27,3.79-3.4,5.68-2.16,3.83-3.19,5.76-2,3.88-3,5.83-1.82,3.94-2.71,5.89c-.45,1-.83,2-1.24,3s-.81,2-1.16,3-.74,2-1.06,2.93c-.16.48-.34,1-.47,1.42a10.12,10.12,0,0,0-.33,1.21,11.86,11.86,0,1,1-22.46-6.57Z"/><path class="cls-1" d="M890,1331.28s13.06-8.43,20.65-18.55a35,35,0,0,1,37.59-12.08c15.18,4.5,33.21,34.84,56.81,34.84"/><path class="cls-3" d="M920.94,1256.26a111.84,111.84,0,0,1,19,7.84,154.3,154.3,0,0,1,17.82,10.74c1.45,1,2.81,2.06,4.23,3.08s2.83,2.09,4.17,3.21l4.09,3.34c1.33,1.15,2.62,2.34,3.94,3.51,2.68,2.31,5.11,4.87,7.65,7.36,1.29,1.23,2.42,2.59,3.64,3.89l3.59,4a8.31,8.31,0,0,1-12.31,11.17,8.06,8.06,0,0,1-1-1.31l-.21-.34-2.47-4.18c-.85-1.38-1.61-2.83-2.54-4.16-1.82-2.69-3.55-5.49-5.55-8.07-1-1.31-1.94-2.65-2.94-4l-3.12-3.82c-1-1.3-2.12-2.52-3.22-3.75s-2.18-2.5-3.35-3.67a147.56,147.56,0,0,0-14.69-13.54A108.42,108.42,0,0,0,920.94,1256.26Z"/><path class="cls-3" d="M920.94,1233.65a111.2,111.2,0,0,1,19.11,7.67,154,154,0,0,1,18,10.6c1.47,1,2.84,2,4.28,3s2.85,2.06,4.21,3.18l4.13,3.31c1.35,1.14,2.66,2.33,4,3.5,2.72,2.29,5.17,4.84,7.75,7.32,1.31,1.22,2.46,2.58,3.69,3.87l3.65,4a9.15,9.15,0,1,1-13.44,12.42,9.35,9.35,0,0,1-1.18-1.59l-.21-.36-2.42-4.19c-.83-1.39-1.57-2.85-2.49-4.18-1.78-2.7-3.47-5.51-5.44-8.1-1-1.32-1.9-2.67-2.89-4l-3.07-3.84c-1-1.31-2.09-2.54-3.18-3.78s-2.15-2.51-3.3-3.7a148.38,148.38,0,0,0-14.53-13.68A108.85,108.85,0,0,0,920.94,1233.65Z"/><path class="cls-3" d="M922.63,1211.17a142.8,142.8,0,0,1,15.45,6.67c5,2.51,10,5.23,14.88,8.22s9.63,6.14,14.24,9.59,9.11,7.1,13.51,10.93a8.32,8.32,0,1,1-10.92,12.56,8.47,8.47,0,0,1-1.34-1.48l-.1-.14c-3-4.36-6.18-8.72-9.64-12.86s-7.07-8.21-10.87-12.13-7.84-7.65-12-11.24A140.3,140.3,0,0,0,922.63,1211.17Z"/><path class="cls-3" d="M922.63,1185a113,113,0,0,1,14.74,6q7.21,3.5,14.14,7.71c1.15.69,2.28,1.43,3.43,2.15s2.28,1.46,3.39,2.23l3.37,2.29,3.29,2.4c2.23,1.58,4.33,3.32,6.5,5s4.19,3.52,6.3,5.29a8.34,8.34,0,1,1-10.72,12.78,7.85,7.85,0,0,1-1.44-1.56l-.2-.28c-1.44-2.06-2.85-4.17-4.35-6.21s-3-4.1-4.63-6.06l-2.41-3-2.5-2.91c-.83-1-1.68-1.93-2.56-2.87s-1.73-1.9-2.63-2.83c-3.56-3.72-7.3-7.3-11.24-10.7A111.71,111.71,0,0,0,922.63,1185Z"/><path class="cls-3" d="M922.63,1162a106.59,106.59,0,0,1,14.49,5.81c4.73,2.27,9.35,4.81,13.89,7.54,2.22,1.42,4.51,2.78,6.68,4.3l3.31,2.25,3.23,2.35c2.19,1.55,4.23,3.25,6.36,4.89s4.12,3.44,6.19,5.17a8.34,8.34,0,1,1-10.71,12.8,8.17,8.17,0,0,1-1.47-1.59l-.18-.27c-1.41-2-2.79-4.09-4.24-6.11s-2.93-4-4.52-6l-2.34-2.93-2.44-2.86c-1.61-1.94-3.34-3.74-5-5.62-3.48-3.64-7.12-7.17-11-10.51A103.23,103.23,0,0,0,922.63,1162Z"/><path class="cls-3" d="M922.63,1139a91,91,0,0,1,14.54,5.18,148.5,148.5,0,0,1,13.92,7.13c2.22,1.37,4.51,2.69,6.68,4.16,1.1.73,2.21,1.45,3.3,2.2l3.23,2.3,1.61,1.15,1.57,1.21,3.16,2.44c2.07,1.66,4.08,3.4,6.14,5.11a8.35,8.35,0,1,1-12.17,11.22l-.19-.28c-1.39-2-2.74-4-4.17-6l-2.2-2.94-1.1-1.48-1.16-1.43-2.32-2.87c-.79-.94-1.61-1.85-2.42-2.79-1.6-1.89-3.33-3.64-5-5.47a141.3,141.3,0,0,0-11-10.13A89.39,89.39,0,0,0,922.63,1139Z"/><path class="cls-3" d="M922.63,1116a91,91,0,0,1,14.54,5.18,148.5,148.5,0,0,1,13.92,7.13c2.22,1.37,4.51,2.68,6.68,4.16,1.1.73,2.21,1.44,3.3,2.19l3.23,2.3,1.61,1.16,1.57,1.21,3.16,2.44c2.07,1.65,4.08,3.39,6.14,5.11a8.35,8.35,0,1,1-10.68,12.83,8.69,8.69,0,0,1-1.49-1.61l-.19-.29c-1.39-2-2.74-4-4.17-6l-2.2-2.94-1.1-1.47-1.16-1.43-2.32-2.87c-.79-1-1.61-1.86-2.42-2.79-1.6-1.9-3.33-3.65-5-5.47a139.36,139.36,0,0,0-11-10.13A88.55,88.55,0,0,0,922.63,1116Z"/><path class="cls-3" d="M922.63,1094.36a91,91,0,0,1,14.54,5.18,148.5,148.5,0,0,1,13.92,7.13c2.22,1.37,4.51,2.68,6.68,4.16,1.1.73,2.21,1.44,3.3,2.19l3.23,2.3,1.61,1.16,1.57,1.21,3.16,2.44c2.07,1.66,4.08,3.39,6.14,5.11a8.35,8.35,0,1,1-10.68,12.83,8.69,8.69,0,0,1-1.49-1.61l-.19-.29c-1.39-2-2.74-4-4.17-6l-2.2-2.93-1.1-1.48-1.16-1.43-2.32-2.87c-.79-1-1.61-1.86-2.42-2.79-1.6-1.9-3.33-3.65-5-5.47a139.36,139.36,0,0,0-11-10.13A88.55,88.55,0,0,0,922.63,1094.36Z"/><path class="cls-3" d="M922.63,1069.92a91.91,91.91,0,0,1,14.54,5.17,150.94,150.94,0,0,1,13.92,7.13c2.22,1.37,4.51,2.69,6.68,4.17,1.1.73,2.21,1.44,3.3,2.19l3.23,2.3,1.61,1.16,1.57,1.21,3.16,2.44c2.07,1.65,4.08,3.39,6.14,5.1a8.35,8.35,0,0,1-10.68,12.84,8.74,8.74,0,0,1-1.49-1.62l-.19-.28c-1.39-2-2.74-4-4.17-6l-2.2-2.94-1.1-1.47-1.16-1.43-2.32-2.87c-.79-1-1.61-1.86-2.42-2.8-1.6-1.89-3.33-3.64-5-5.47a143.29,143.29,0,0,0-11-10.13A89.33,89.33,0,0,0,922.63,1069.92Z"/><path class="cls-3" d="M922.63,1047.79a91,91,0,0,1,14.54,5.18,148.5,148.5,0,0,1,13.92,7.13c2.22,1.37,4.51,2.69,6.68,4.16,1.1.73,2.21,1.44,3.3,2.19l3.23,2.3,1.61,1.16,1.57,1.21,3.16,2.44c2.07,1.66,4.08,3.4,6.14,5.11a8.35,8.35,0,1,1-12.17,11.22l-.19-.28c-1.39-2-2.74-4-4.17-6l-2.2-2.94-1.1-1.48-1.16-1.43-2.32-2.87c-.79-.94-1.61-1.86-2.42-2.79-1.6-1.89-3.33-3.64-5-5.47a141.3,141.3,0,0,0-11-10.13A89.39,89.39,0,0,0,922.63,1047.79Z"/><path class="cls-3" d="M922.63,1026.53a91,91,0,0,1,14.54,5.18,148.5,148.5,0,0,1,13.92,7.13c2.22,1.37,4.51,2.69,6.68,4.16,1.1.73,2.21,1.44,3.3,2.2l3.23,2.3,1.61,1.15,1.57,1.21,3.16,2.44c2.07,1.66,4.08,3.4,6.14,5.11a8.35,8.35,0,1,1-12.17,11.22l-.19-.28c-1.39-2-2.74-4-4.17-6l-2.2-2.94-1.1-1.48-1.16-1.43-2.32-2.87c-.79-.94-1.61-1.86-2.42-2.79-1.6-1.89-3.33-3.64-5-5.47a141.3,141.3,0,0,0-11-10.13A89.39,89.39,0,0,0,922.63,1026.53Z"/><path class="cls-3" d="M918.62,999.12a125,125,0,0,1,15.74,5.68,167.24,167.24,0,0,1,15.21,7.48c4.95,2.78,9.87,5.75,14.59,9.06s9.33,6.85,13.86,10.59a10,10,0,0,1-12.79,15.44,9.88,9.88,0,0,1-2-2.18l-.08-.13c-2.84-4.34-5.81-8.7-9.12-12.83A162.82,162.82,0,0,0,931.75,1009,121.83,121.83,0,0,0,918.62,999.12Z"/><path class="cls-3" d="M921.43,979.43a124.42,124.42,0,0,1,15.52,6,168.08,168.08,0,0,1,14.93,7.78c4.85,2.88,9.65,5.93,14.25,9.32s9.08,7,13.46,10.78a8.32,8.32,0,1,1-10.9,12.58,8,8,0,0,1-1.36-1.5l-.1-.14c-3-4.3-6.09-8.59-9.52-12.64A164.61,164.61,0,0,0,934.78,989,123.26,123.26,0,0,0,921.43,979.43Z"/><path class="cls-3" d="M921.43,959.74a124.42,124.42,0,0,1,15.52,6,168.08,168.08,0,0,1,14.93,7.78c4.85,2.88,9.65,5.93,14.25,9.32s9.08,7,13.46,10.78a8.32,8.32,0,1,1-10.9,12.58,8,8,0,0,1-1.36-1.5l-.1-.14c-3-4.3-6.09-8.59-9.52-12.64a164.61,164.61,0,0,0-22.93-22.67A121.9,121.9,0,0,0,921.43,959.74Z"/><path class="cls-3" d="M928,942.53a69.4,69.4,0,0,1,10.38,3.12,101,101,0,0,1,10.08,4.46,110.45,110.45,0,0,1,9.7,5.58c1.62,1,3.13,2.09,4.7,3.16s3,2.26,4.58,3.4a8.43,8.43,0,1,1-12.25,11.14l-.11-.2c-.86-1.41-1.68-2.87-2.58-4.28s-1.81-2.84-2.81-4.2a101.57,101.57,0,0,0-6.27-8.07,99.31,99.31,0,0,0-7.2-7.48A66.37,66.37,0,0,0,928,942.53Z"/><path class="cls-3" d="M928,920.89A69.36,69.36,0,0,1,938.36,924a105.85,105.85,0,0,1,10.08,4.46,110.45,110.45,0,0,1,9.7,5.58c1.62,1,3.13,2.09,4.7,3.17s3,2.25,4.58,3.4a8.43,8.43,0,1,1-10.09,13.51,8.65,8.65,0,0,1-2.16-2.37l-.11-.2c-.86-1.41-1.68-2.87-2.58-4.29s-1.81-2.84-2.81-4.19A99.79,99.79,0,0,0,943.4,935a95.65,95.65,0,0,0-7.2-7.48A66.37,66.37,0,0,0,928,920.89Z"/><path class="cls-3" d="M937.05,907.28a40.55,40.55,0,0,1,8.17,2.51,85.75,85.75,0,0,1,7.84,3.66c2.57,1.33,5.07,2.79,7.56,4.29l3.68,2.32,3.63,2.42a6.74,6.74,0,0,1-7.47,11.22,6.93,6.93,0,0,1-1.86-1.84l-.05-.09-2.26-3.39L954,925.06c-1.61-2.18-3.25-4.36-5-6.44a77.13,77.13,0,0,0-5.52-6.06A38.61,38.61,0,0,0,937.05,907.28Z"/><path class="cls-3" d="M941.35,890.75a15.17,15.17,0,0,1,3.81.67c1.26.35,2.49.79,3.71,1.26,2.43,1,4.81,2.06,7.14,3.25s4.61,2.48,6.86,3.82,4.46,2.73,6.67,4.15a6.77,6.77,0,0,1-7.32,11.38,6.87,6.87,0,0,1-2.07-2.09c-1.3-2.07-2.63-4.15-4-6.18s-2.81-4-4.31-6-3.08-3.82-4.77-5.6c-.86-.89-1.73-1.76-2.67-2.56A14.81,14.81,0,0,0,941.35,890.75Z"/><path class="cls-3" d="M949.86,878a36.13,36.13,0,0,1,5.58.94c1.85.44,3.69,1,5.53,1.61s3.64,1.31,5.44,2.06,3.58,1.56,5.35,2.42l.17.08a6.94,6.94,0,1,1-9.06,9.68c-.85-1.51-1.74-3-2.69-4.49s-1.95-2.94-3-4.35-2.18-2.82-3.38-4.16A33.51,33.51,0,0,0,949.86,878Z"/><path class="cls-3" d="M973.41,992.87s33.76-32.06,40.69-41.53,12.83-34.14,12.83-34.14l-6.32,45.89-37.07,44.34Z"/><line class="cls-1" x1="876.37" y1="728.07" x2="887.02" y2="745.03"/><path class="cls-3" d="M779.55,610.53c6.37,0,6.38-9.9,0-9.9s-6.38,9.9,0,9.9Z"/><path class="cls-3" d="M804.84,625.7c6.37,0,6.38-9.9,0-9.9s-6.39,9.9,0,9.9Z"/><path class="cls-3" d="M808.21,593.67c6.37,0,6.38-9.9,0-9.9s-6.38,9.9,0,9.9Z"/><path class="cls-3" d="M835.18,619c6.37,0,6.38-9.91,0-9.91s-6.38,9.91,0,9.91Z"/><path class="cls-3" d="M863.84,590.3c6.37,0,6.38-9.9,0-9.9s-6.39,9.9,0,9.9Z"/><path class="cls-3" d="M836.87,592c6.37,0,6.38-9.91,0-9.91s-6.39,9.91,0,9.91Z"/><path class="cls-3" d="M828.44,558.27c6.37,0,6.38-9.9,0-9.9s-6.39,9.9,0,9.9Z"/><path class="cls-3" d="M782.92,576.81c6.38,0,6.39-9.9,0-9.9s-6.38,9.9,0,9.9Z"/><path class="cls-3" d="M762.69,624c6.38,0,6.39-9.9,0-9.9s-6.38,9.9,0,9.9Z"/><path class="cls-3" d="M799.78,571.76c6.37,0,6.38-9.91,0-9.91s-6.38,9.91,0,9.91Z"/><path class="cls-3" d="M657.76,793c6.37,0,6.38-9.91,0-9.91s-6.38,9.91,0,9.91Z"/><path class="cls-3" d="M666.61,823.35c6.37,0,6.38-9.9,0-9.9s-6.38,9.9,0,9.9Z"/><path class="cls-3" d="M688.1,789.21c6.37,0,6.38-9.9,0-9.9s-6.38,9.9,0,9.9Z"/><path class="cls-3" d="M709.59,809.44c6.38,0,6.39-9.9,0-9.9s-6.38,9.9,0,9.9Z"/><path class="cls-3" d="M727.29,779.1c6.38,0,6.39-9.9,0-9.9s-6.38,9.9,0,9.9Z"/><path class="cls-3" d="M691.89,830.94h1.27a3.8,3.8,0,0,0,1.91-.43,4.41,4.41,0,0,0,2.61-2.62,3.68,3.68,0,0,0,.43-1.91l-.18-1.31a5,5,0,0,0-1.27-2.19,5.14,5.14,0,0,0-3.5-1.45h-1.27a3.77,3.77,0,0,0-1.9.43,4.39,4.39,0,0,0-2.62,2.62,3.77,3.77,0,0,0-.43,1.9l.18,1.32a5,5,0,0,0,1.27,2.19,5.19,5.19,0,0,0,3.5,1.45Z"/><path class="cls-3" d="M732.35,810.71c6.37,0,6.38-9.91,0-9.91s-6.38,9.91,0,9.91Z"/><path class="cls-3" d="M678,855c6.37,0,6.38-9.91,0-9.91S671.6,855,678,855Z"/><path class="cls-3" d="M643.85,856.22c6.37,0,6.38-9.9,0-9.9s-6.38,9.9,0,9.9Z"/><path class="cls-3" d="M640.06,824.61c6.37,0,6.38-9.9,0-9.9s-6.38,9.9,0,9.9Z"/><path class="cls-3" d="M1002.91,521.19c6.37,0,6.38-9.91,0-9.91s-6.38,9.91,0,9.91Z"/><path class="cls-3" d="M1026.51,507.7c6.37,0,6.38-9.9,0-9.9s-6.38,9.9,0,9.9Z"/><path class="cls-3" d="M1008.81,497.59c6.37,0,6.38-9.91,0-9.91s-6.38,9.91,0,9.91Z"/><path class="cls-3" d="M1028.19,555.74c6.38,0,6.39-9.9,0-9.9s-6.38,9.9,0,9.9Z"/><path class="cls-3" d="M1057.69,523.71c6.38,0,6.39-9.9,0-9.9s-6.38,9.9,0,9.9Z"/><path class="cls-3" d="M1029.88,527.09c6.37,0,6.38-9.91,0-9.91s-6.38,9.91,0,9.91Z"/><path class="cls-3" d="M1081.29,518.66c6.38,0,6.39-9.91,0-9.91s-6.38,9.91,0,9.91Z"/><path class="cls-3" d="M1066.12,563.33c6.38,0,6.39-9.9,0-9.9s-6.38,9.9,0,9.9Z"/><path class="cls-3" d="M1099,575.13c6.38,0,6.39-9.9,0-9.9s-6.38,9.9,0,9.9Z"/><path class="cls-3" d="M1094.78,550.69c6.37,0,6.38-9.91,0-9.91s-6.38,9.91,0,9.91Z"/><path class="cls-3" d="M1051,546.47c6.37,0,6.38-9.9,0-9.9s-6.38,9.9,0,9.9Z"/><path class="cls-3" d="M1056,501.8c6.37,0,6.38-9.9,0-9.9s-6.38,9.9,0,9.9Z"/><path class="cls-3" d="M1134.39,729.37c6.38,0,6.39-9.9,0-9.9s-6.38,9.9,0,9.9Z"/><path class="cls-3" d="M1144.51,762.24c6.37,0,6.38-9.9,0-9.9s-6.38,9.9,0,9.9Z"/><path class="cls-3" d="M1161.37,734.43c6.37,0,6.38-9.9,0-9.9s-6.39,9.9,0,9.9Z"/><path class="cls-3" d="M1169,755.5c6.37,0,6.38-9.9,0-9.9s-6.38,9.9,0,9.9Z"/><path class="cls-3" d="M1190.87,738.64c6.37,0,6.38-9.9,0-9.9s-6.39,9.9,0,9.9Z"/><path class="cls-3" d="M1159.68,790.9c6.37,0,6.38-9.9,0-9.9s-6.38,9.9,0,9.9Z"/><path class="cls-3" d="M1191.71,794.27c6.37,0,6.38-9.9,0-9.9s-6.38,9.9,0,9.9Z"/><path class="cls-3" d="M1189.18,769c6.37,0,6.38-9.91,0-9.91s-6.38,9.91,0,9.91Z"/><path class="cls-3" d="M1220.37,753c6.37,0,6.38-9.9,0-9.9s-6.39,9.9,0,9.9Z"/><path class="cls-3" d="M1211.94,777.41c6.37,0,6.38-9.9,0-9.9s-6.39,9.9,0,9.9Z"/><path class="cls-3" d="M1126.23,783.24c6.37,0,6.38-9.9,0-9.9s-6.38,9.9,0,9.9Z"/><path class="cls-3" d="M1148.72,816.66c6.38,0,6.39-9.91,0-9.91s-6.38,9.91,0,9.91Z"/><path class="cls-3" d="M1175.69,723.47c6.38,0,6.39-9.9,0-9.9s-6.38,9.9,0,9.9Z"/><path class="cls-3" d="M1174,800.17c6.37,0,6.38-9.9,0-9.9s-6.38,9.9,0,9.9Z"/><path class="cls-3" d="M823.38,635.81c6.37,0,6.38-9.9,0-9.9s-6.38,9.9,0,9.9Z"/><path class="cls-3" d="M781.24,637.5c6.37,0,6.38-9.9,0-9.9s-6.39,9.9,0,9.9Z"/><path class="cls-3" d="M850.35,565.86c6.37,0,6.38-9.91,0-9.91s-6.38,9.91,0,9.91Z"/><path class="cls-3" d="M1046.74,571.76c6.37,0,6.38-9.91,0-9.91s-6.39,9.91,0,9.91Z"/><path class="cls-3" d="M1104.89,530.46c6.38,0,6.39-9.91,0-9.91s-6.38,9.91,0,9.91Z"/><path class="cls-3" d="M1081.29,580.19c6.38,0,6.39-9.91,0-9.91s-6.38,9.91,0,9.91Z"/><path class="cls-3" d="M981.26,530.6c6.37,0,6.38-9.91,0-9.91s-6.38,9.91,0,9.91Z"/><path class="cls-3" d="M1077.5,538.89c6.37,0,6.38-9.91,0-9.91s-6.38,9.91,0,9.91Z"/><path class="cls-3" d="M860,618.54c6.38,0,6.39-9.91,0-9.91s-6.38,9.91,0,9.91Z"/><path class="cls-3" d="M707.07,775.31c6.37,0,6.38-9.91,0-9.91s-6.39,9.91,0,9.91Z"/><path class="cls-3" d="M684.31,810.71c6.37,0,6.38-9.91,0-9.91s-6.38,9.91,0,9.91Z"/><path class="cls-3" d="M719.71,841.05c6.37,0,6.38-9.9,0-9.9s-6.38,9.9,0,9.9Z"/><path class="cls-3" d="M656.49,844.84c6.38,0,6.39-9.9,0-9.9s-6.38,9.9,0,9.9Z"/><path class="cls-3" d="M1212.78,734.85c6.37,0,6.38-9.9,0-9.9s-6.38,9.9,0,9.9Z"/><path class="cls-3" d="M1232.43,776.13c6.37,0,6.38-9.9,0-9.9s-6.38,9.9,0,9.9Z"/><path class="cls-3" d="M979.59,1320v-15.85l1.12-12.25,13.21,8.71,24.58,9.84s32.13,5,38.26,9.55-1.88,12.08-1.88,12.08h-53.94S981,1326.5,979.59,1320Z"/><path class="cls-3" d="M1098.33,1293.77s18.36-17.28,21.31-27.39l35,19s-.42,8.85,0,10.54-9.27,4.77-9.27,4.77Z"/><path class="cls-3" d="M1069.07,1169.87s11.1-12.69,21.78-12.69,18.26,23.23,16,41.21.28,63.21,9.83,66.3l3-55.07,0-61.81-35-8.81-15.6,11.34Z"/><path class="cls-1" d="M726.87,1291.94c2.11-.7,54.37-18,91-60.33"/><path class="cls-1" d="M750.89,1291.94s48.89-6.6,88.5-33.43c18.5-12.53,12.38-26.9,12.38-26.9"/><path class="cls-1" d="M528.38,1277.05s25-6.74,43.55-5.62,42.14,18.83,42.14,18.83"/><line class="cls-1" x1="528.38" y1="1302.9" x2="610.91" y2="1291.57"/><path class="cls-1" d="M1005,1229.29s58.7-9,88.7-39.91"/><path class="cls-1" d="M1110,1185s1.08,45.29-51.86,68.51"/><path class="cls-1" d="M1114.17,1237.93s-6.22,26.53-37.56,41.08"/><line class="cls-4" x1="673.35" y1="1307.95" x2="673.35" y2="1109.18"/><line class="cls-4" x1="1209.08" y1="1307.68" x2="1209.08" y2="1111.03"/><path class="cls-1" d="M825.49,1598.88s12.25-146.27,223.88-225.83"/><path class="cls-1" d="M809,1595.82s26.72-120.39,142.67-173.8"/><path class="cls-1" d="M920.94,1607.73s-24-126.85,132.86-206.14"/><path class="cls-1" d="M905.31,1607.73s-6.47-82.32,60-149.18"/><path class="cls-1" d="M737.66,1577.52s41.05-104.22,163-168.19"/><path class="cls-1" d="M720.94,1572s44.29-80.09,123.79-126.92"/><path class="cls-1" d="M997.68,1606.13s-46-112.71,69.1-179.22"/><path class="cls-1" d="M983.88,1607.18s-21.43-75.16,19-124.75"/><path class="cls-1" d="M1076.61,1594.6s-34-31.19-24.53-83.23c10.67-58.44,84.3-93.11,84.3-93.11"/><path class="cls-1" d="M1062.67,1597.34s-54.05-56.75-5.91-118.84"/><path class="cls-1" d="M1156.36,1572.76s-93.69-82.38,50.46-153.14"/><path class="cls-1" d="M1142.77,1577.25s-62.46-41.16-5.19-112"/><path class="cls-1" d="M1203.7,1554.52s-39-24.11-27.58-61.1,87.89-66.51,87.89-66.51"/><path class="cls-1" d="M1209.08,1552.18s-23.29-16.5-25.38-43.26"/><path class="cls-1" d="M1255.21,1529.7s-30.63-19.18-16-48.82,75.25-44.4,75.25-44.4"/><path class="cls-1" d="M1262.58,1525.69s-26.2-19.1-15.52-44.81"/><path class="cls-1" d="M653.54,1544.43s68.7-68.37,166.33-123.77"/><line class="cls-1" x1="643.88" y1="1539.75" x2="684.73" y2="1507.43"/><path class="cls-1" d="M582.32,1505.17s150.43-81.59,222.72-113"/><path class="cls-1" d="M527.12,1466.16s89.34-39.06,188.59-72.07"/><circle class="cls-1" cx="939.78" cy="939.78" r="931.53"/><path class="cls-1" d="M138.05,939.78c0-442.78,359-801.73,801.73-801.73s801.74,359,801.74,801.73"/><path class="cls-3" d="M127.83,1230.48c-6.39-21,12.53-50.9,8.64-63.64l-5.16-16.95-25.65,7.82-8-26.3L210.58,1097l14.95,49c12,39.36-2.85,66.46-25.27,73.29s-39.53-6.47-44.23-12.62c-4.66,5-3.37,23.07,4.05,27.15C158.89,1250.81,134.22,1251.45,127.83,1230.48Zm64.46-37.28c11.62-3.54,13.63-17.2,6.94-39.14l-6.93-22.75-34.69,10.57,6.93,22.75C171.23,1186.57,180.67,1196.74,192.29,1193.2Z"/><path class="cls-3" d="M196.57,1376.91l15-20.06L182,1300.39l-25,.93-14.17-27,130.81-4,.15-.08L289,1299.32l-.15.08-78.19,104.4Zm59.06-78.76-43.27,1.35,17.38,33.17Z"/><path class="cls-3" d="M299.23,1518l-10.83-13.8,10.41-103.38-56.65,44.47-17.24-21.42,93-73L329.8,1366l-10.16,101.25,55.46-43.54,16.87,21.5Z"/><path class="cls-3" d="M427,1589.08l-7.46,26.43c-15-4.23-29.79-12.54-42.7-24.17-34.59-31.15-44.39-74.71-22.27-99.27s66.58-19.49,101.17,11.67c12.91,11.63,22.71,25.45,28.48,40l-25.5,10.17c-4.13-10.54-11.73-21-21.38-29.7-19.55-17.61-49.81-27.61-62.34-13.7s.57,43,20.12,60.57C404.78,1579.73,416.1,1586.07,427,1589.08Z"/><path class="cls-3" d="M532.41,1701.07l-23.28-14.64,24.24-38.55-54.26-34.12-24.25,38.55-23.27-14.63,62.94-100.11,23.27,14.64-24.15,38.41,54.27,34.12,24.15-38.41L595.35,1601Z"/><path class="cls-3" d="M708.66,1711.35c-12.08,30.22-51.6,42.76-88.25,28.1s-56.79-51-44.7-81.26,51.67-42.92,88.47-28.2C700.82,1644.64,720.75,1681.12,708.66,1711.35Zm-25.37-10.15c6.39-16-7.08-36.8-29.32-45.69s-46.35-3.09-52.74,12.88c-6.32,15.82,7.09,36.8,29.32,45.69S677,1717,683.29,1701.2Z"/><path class="cls-3" d="M840.27,1796.05,755.41,1782l19.31-116.32,27.13,4.51L787,1759.5l57.74,9.59Z"/><path class="cls-3" d="M1006.52,1743c-.53,32.55-33,58.34-72.47,57.69-39.63-.64-71.24-27.47-70.71-60s33-58.51,72.63-57.86C975.43,1683.4,1007.05,1710.4,1006.52,1743Zm-27.32-.45c.27-17.2-19.73-31.86-43.68-32.25s-44.42,13.61-44.7,30.82c-.27,17,19.73,31.86,43.68,32.25S978.92,1759.54,979.2,1742.5Z"/><path class="cls-3" d="M1147.6,1741.49c3.65,20.43-17.81,40.37-50,46.12-42.35,7.57-68.58-4-69.69-4.51l11.3-25s20.18,8.39,53.55,2.43c17.6-3.15,28.62-9.57,27.73-14.55-.86-4.82-24.79-4.49-34.69-4.26-24.26.39-54.51.83-59.17-25.24-3.68-20.59,17.81-40.36,50-46.12s49.76.36,51.79,1.2l-9.82,25.57.19.14c-.19-.14-12.94-4.37-37.35,0-17.27,3.09-28.53,10.07-27.76,14.38.8,4.49,21.91,2.77,31.64,2.58C1109.42,1713.87,1142.58,1713.43,1147.6,1741.49Z"/><path class="cls-3" d="M1300,1723.08l-79.84,32-43.89-109.43,25.52-10.24,33.72,84.07,54.32-21.79Z"/><path class="cls-3" d="M1263.16,1609l24.52-12.44L1341.17,1702l-24.52,12.44Z"/><path class="cls-3" d="M1476.46,1616.53l-22.83,15.3-36.91-55.06-7,66.82-62.83-19.21,36.53,54.51-22.84,15.3-65.65-97.93,16.82-11.27,74.2,22.55,8.18-77.78,16.68-11.17Z"/><path class="cls-3" d="M1556.07,1458c23,23.09,18.78,64.34-9.2,92.17s-69.39,31.89-92.34,8.81-18.9-64.46,9.2-92.41S1533.12,1434.91,1556.07,1458Zm-19.37,19.27c-12.13-12.2-36.59-8.09-53.58,8.79s-21.23,41.33-9.1,53.53,36.6,8.1,53.58-8.79S1548.71,1489.34,1536.7,1477.26Z"/><path class="cls-3" d="M1681,1382l-10,14.4-101.9,20.3,59.11,41.16-15.44,22.75-97-67.57,11-15.78,99.79-19.92L1568.61,1337l15.61-22.42Z"/><path class="cls-3" d="M1638.72,1305.48l21.55-44.11,24.55,12-21.54,44.1,16.07,7.85,31.68-64.87,24.55,12L1691.83,1362l-105.94-51.75,43.89-89.88,24.71,12.07-31.83,65.17Z"/><path class="cls-3" d="M1747.88,1121.1c19.84,6.06,27.82,34.24,18.28,65.54-12.55,41.14-34.82,59.22-35.76,60l-17.09-21.44s16.65-14.14,26.55-46.57c5.21-17.1,4.51-29.84-.33-31.32-4.68-1.42-15.28,20-19.58,29-10.7,21.78-24.09,48.91-49.42,41.18-20-6.1-27.83-34.24-18.28-65.54s23-44.13,24.65-45.56l18.3,20.4.21-.12c-.21.12-9.79,9.54-17,33.26-5.12,16.78-4,30,.16,31.26,4.35,1.33,12.44-18.25,16.7-27C1705.9,1142.51,1720.61,1112.79,1747.88,1121.1Z"/><line class="cls-1" x1="528.38" y1="1405.87" x2="708.75" y2="1368.9"/><line class="cls-1" x1="1057.69" y1="694.31" x2="1051.57" y2="724.14"/><path class="cls-1" d="M1096.53,1142s23.16,0,39.34,2.53c0,0-18.18,2.8-19.67,23.24"/><path class="cls-1" d="M722.24,1300.65l67.43-1.45s15.19-22.46,66.16-38.72"/><path class="cls-3" d="M674.46,869.21a179.45,179.45,0,0,0,26.37-6.4,173.31,173.31,0,0,0,24.86-10,127.68,127.68,0,0,0,22.18-13.94,100.58,100.58,0,0,0,9.47-8.56,87.61,87.61,0,0,0,7.95-9.6l.07-.1a8.28,8.28,0,0,1,13.4,9.74,8.09,8.09,0,0,1-.8.94,104.56,104.56,0,0,1-11.07,9.85,111.3,111.3,0,0,1-12.12,8,137.58,137.58,0,0,1-26,11.3,179.21,179.21,0,0,1-27,6.4A182.5,182.5,0,0,1,674.46,869.21Z"/><path class="cls-3" d="M656.49,887.15a202.85,202.85,0,0,0,29.36-3.88,194.51,194.51,0,0,0,28.2-7.9A141.51,141.51,0,0,0,739.9,863a108.88,108.88,0,0,0,11.38-8.14,95.27,95.27,0,0,0,9.86-9.48l.09-.09a8.27,8.27,0,1,1,12.23,11.14,6.79,6.79,0,0,1-.82.79,111.18,111.18,0,0,1-13,9.43,123.13,123.13,0,0,1-14,7.31,152.79,152.79,0,0,1-29.31,9.38,212.73,212.73,0,0,1-59.85,3.84Z"/><path class="cls-3" d="M663.93,902.26a149.35,149.35,0,0,0,25.47-3,151.13,151.13,0,0,0,24.33-7,121.47,121.47,0,0,0,11.43-5c1.86-.89,3.65-1.91,5.46-2.88s3.55-2.05,5.24-3.19a94.73,94.73,0,0,0,18.42-15.32h0a8.28,8.28,0,1,1,12.09,11.32,10.23,10.23,0,0,1-1,.89,109,109,0,0,1-23.75,14.06c-2.06.95-4.19,1.73-6.29,2.56s-4.24,1.53-6.39,2.16A131.38,131.38,0,0,1,716,900.25a157.23,157.23,0,0,1-26.15,3.13A151.62,151.62,0,0,1,663.93,902.26Z"/><path class="cls-3" d="M730.09,835.63a89.65,89.65,0,0,0,10.33-6.07,93.08,93.08,0,0,0,9.25-7.19,66,66,0,0,0,7.76-8.16,48.22,48.22,0,0,0,5.54-8.9,8.38,8.38,0,1,1,13.4,9.67l-.09.09a62,62,0,0,1-10.75,8.5A76.35,76.35,0,0,1,754,829.41a96.44,96.44,0,0,1-11.88,3.91A89.54,89.54,0,0,1,730.09,835.63Z"/><path class="cls-3" d="M797.27,657.86a180,180,0,0,0,26.37-6.39,175,175,0,0,0,24.86-10,127.59,127.59,0,0,0,22.17-13.94,96.86,96.86,0,0,0,9.47-8.56,89.74,89.74,0,0,0,8-9.59l.07-.1a8.28,8.28,0,1,1,13.4,9.73,10.56,10.56,0,0,1-.8.95,104.68,104.68,0,0,1-11.08,9.84,111.3,111.3,0,0,1-12.12,8,137.3,137.3,0,0,1-26,11.3,178.92,178.92,0,0,1-27,6.4A181,181,0,0,1,797.27,657.86Z"/><path class="cls-3" d="M779.3,675.8a200.11,200.11,0,0,0,29.36-3.88,196.12,196.12,0,0,0,28.2-7.89,142.84,142.84,0,0,0,25.85-12.41,108.88,108.88,0,0,0,11.38-8.14A97.33,97.33,0,0,0,884,634l.08-.09a8.28,8.28,0,1,1,12.24,11.15,10,10,0,0,1-.82.78,111.18,111.18,0,0,1-13,9.43,123.13,123.13,0,0,1-14,7.31A152.19,152.19,0,0,1,839.14,672a212.63,212.63,0,0,1-59.84,3.84Z"/><path class="cls-3" d="M790.56,689.91a156.17,156.17,0,0,0,24.49-3.08,151.71,151.71,0,0,0,23.41-6.65,111,111,0,0,0,21.24-10.56,83.49,83.49,0,0,0,9.23-6.88,79.55,79.55,0,0,0,8-8l.08-.09a8.28,8.28,0,0,1,12.43,10.95,8.77,8.77,0,0,1-1,1,93.51,93.51,0,0,1-11.08,7.89,98.92,98.92,0,0,1-11.85,6.08,121.41,121.41,0,0,1-24.78,7.55,157.16,157.16,0,0,1-25.17,2.81A159.76,159.76,0,0,1,790.56,689.91Z"/><path class="cls-3" d="M852.89,624.28a89.65,89.65,0,0,0,10.33-6.07,90.56,90.56,0,0,0,9.26-7.18,66.61,66.61,0,0,0,7.75-8.16,47.24,47.24,0,0,0,5.54-8.91,8.39,8.39,0,1,1,13.41,9.68l-.1.08a62.33,62.33,0,0,1-10.74,8.5,77.84,77.84,0,0,1-11.55,5.85A99.94,99.94,0,0,1,864.91,622,91.56,91.56,0,0,1,852.89,624.28Z"/><path class="cls-3" d="M796.83,699.45a73,73,0,0,0,12.34.57,108.22,108.22,0,0,0,12.13-1c2-.33,4-.6,6-1l2.94-.6,2.91-.72c1.94-.44,3.84-1.07,5.74-1.6s3.76-1.25,5.62-1.86l.26-.08a7.53,7.53,0,1,1,2.52,14.67c-2.21,0-4.39.15-6.58.14s-4.36,0-6.54-.17l-3.25-.19-3.23-.31c-2.15-.17-4.29-.53-6.41-.81a115.51,115.51,0,0,1-12.52-2.69A75.22,75.22,0,0,1,796.83,699.45Z"/><path class="cls-3" d="M1033.8,602.63a180.07,180.07,0,0,0,26.37-6.4,174.4,174.4,0,0,0,24.85-10,126.12,126.12,0,0,0,22.18-13.94,95.6,95.6,0,0,0,9.47-8.56,88.76,88.76,0,0,0,8-9.59l.07-.1a8.28,8.28,0,0,1,13.4,9.74,10.42,10.42,0,0,1-.8.94,103.68,103.68,0,0,1-11.08,9.85,109.76,109.76,0,0,1-12.12,8,137.63,137.63,0,0,1-26,11.31,189.45,189.45,0,0,1-54.33,8.78Z"/><path class="cls-3" d="M1015.83,620.57a222.07,222.07,0,0,0,29.78-5.07,216,216,0,0,0,28.58-8.82c4.62-1.8,9.13-3.8,13.53-5.95a145.94,145.94,0,0,0,12.74-7.12,120.87,120.87,0,0,0,11.62-8.38,101.86,101.86,0,0,0,10.09-9.69l.06-.07a8.27,8.27,0,1,1,12.24,11.13,8.4,8.4,0,0,1-.8.78,118,118,0,0,1-13.22,9.62,134.3,134.3,0,0,1-14.14,7.52,157,157,0,0,1-14.68,5.75q-7.44,2.46-15,4.29a234.42,234.42,0,0,1-60.82,6Z"/><path class="cls-3" d="M1054.63,627.33a121.61,121.61,0,0,0,16.94-3.7,126,126,0,0,0,16-5.83,93.19,93.19,0,0,0,14.41-8.08,66.28,66.28,0,0,0,11.67-10.41l.11-.12a8.32,8.32,0,0,1,12.37,11.13,8.82,8.82,0,0,1-1.46,1.28,81.16,81.16,0,0,1-17,9.09,102.81,102.81,0,0,1-17.71,5,133.5,133.5,0,0,1-17.79,2A125.86,125.86,0,0,1,1054.63,627.33Z"/><path class="cls-3" d="M1089.42,569a86.85,86.85,0,0,0,10.33-6.07,90.56,90.56,0,0,0,9.26-7.18,65.9,65.9,0,0,0,7.75-8.16,47.17,47.17,0,0,0,5.54-8.9,8.39,8.39,0,1,1,13.41,9.67l-.1.09a63.32,63.32,0,0,1-10.74,8.5,76.44,76.44,0,0,1-11.56,5.84,97.45,97.45,0,0,1-11.87,3.91A91.56,91.56,0,0,1,1089.42,569Z"/><path class="cls-3" d="M1160,831a180.7,180.7,0,0,0,26.37-6.39,174.52,174.52,0,0,0,24.86-10,127.68,127.68,0,0,0,22.18-13.94,99.35,99.35,0,0,0,9.47-8.56,87.61,87.61,0,0,0,8-9.6l.08-.1a8.28,8.28,0,1,1,13.39,9.74,7.22,7.22,0,0,1-.8.94,104.56,104.56,0,0,1-11.07,9.85,111.3,111.3,0,0,1-12.12,8,137.58,137.58,0,0,1-26,11.3,179.21,179.21,0,0,1-27,6.4A182.39,182.39,0,0,1,1160,831Z"/><path class="cls-3" d="M1144.51,846.81a202.53,202.53,0,0,0,29.35-3.88,194.16,194.16,0,0,0,28.2-7.9,140.9,140.9,0,0,0,25.85-12.41,110,110,0,0,0,11.39-8.13,98.43,98.43,0,0,0,9.86-9.48l.08-.09a8.28,8.28,0,1,1,12.24,11.14,10.13,10.13,0,0,1-.82.79,112.88,112.88,0,0,1-13,9.43,121.45,121.45,0,0,1-14,7.3,151.72,151.72,0,0,1-29.32,9.38A201.36,201.36,0,0,1,1174.4,847,204.18,204.18,0,0,1,1144.51,846.81Z"/><path class="cls-3" d="M1169,857a172.46,172.46,0,0,0,21.32-3.43,169,169,0,0,0,20.48-5.91,120.08,120.08,0,0,0,18.93-8.65,91.32,91.32,0,0,0,8.43-5.52,73.83,73.83,0,0,0,7.4-6.37A8.29,8.29,0,0,1,1257.12,839a8.41,8.41,0,0,1-1.19,1l0,0a91.28,91.28,0,0,1-10.37,5.94,107.83,107.83,0,0,1-10.77,4.41,131.48,131.48,0,0,1-22,5.35A181.92,181.92,0,0,1,1169,857Z"/><path class="cls-3" d="M1218.1,795.29a104.46,104.46,0,0,0,9.22-6.35c2.93-2.25,5.73-4.63,8.37-7.1a81.53,81.53,0,0,0,7.29-7.77,59.88,59.88,0,0,0,5.7-8.3,8.41,8.41,0,1,1,12.58,10.73l-.12.09a74.23,74.23,0,0,1-10.31,7,92.34,92.34,0,0,1-10.72,5.17q-5.43,2.21-10.94,3.82A108.56,108.56,0,0,1,1218.1,795.29Z"/><path class="cls-3" d="M1005.7,549.68c6.38,0,6.39-9.9,0-9.9s-6.38,9.9,0,9.9Z"/><path class="cls-3" d="M988,560.64c6.38,0,6.39-9.9,0-9.9s-6.38,9.9,0,9.9Z"/><path class="cls-3" d="M1025.09,582.55c6.37,0,6.38-9.9,0-9.9s-6.38,9.9,0,9.9Z"/><path class="cls-3" d="M1004,585.93c6.37,0,6.38-9.91,0-9.91s-6.39,9.91,0,9.91Z"/><path class="cls-3" d="M1025.09,605.31c6.37,0,6.38-9.9,0-9.9s-6.38,9.9,0,9.9Z"/><path class="cls-3" d="M1120.33,751.13c6.37,0,6.38-9.91,0-9.91s-6.38,9.91,0,9.91Z"/><path class="cls-3" d="M1116.12,811c6.37,0,6.38-9.91,0-9.91s-6.39,9.91,0,9.91Z"/><path class="cls-3" d="M1197,812.65c6.37,0,6.38-9.9,0-9.9s-6.38,9.9,0,9.9Z"/><path class="cls-3" d="M1137.19,834.57c6.37,0,6.38-9.91,0-9.91s-6.38,9.91,0,9.91Z"/><path class="cls-3" d="M765.49,655c6.37,0,6.38-9.9,0-9.9s-6.38,9.9,0,9.9Z"/><path class="cls-3" d="M784,665.15c6.37,0,6.39-9.9,0-9.9s-6.38,9.9,0,9.9Z"/><path class="cls-3" d="M804.26,646.61c6.37,0,6.38-9.9,0-9.9s-6.38,9.9,0,9.9Z"/><path class="cls-3" d="M657.6,872.5c6.38,0,6.39-9.91,0-9.91s-6.38,9.91,0,9.91Z"/><path class="cls-3" d="M701.43,857.33c6.37,0,6.39-9.91,0-9.91s-6.38,9.91,0,9.91Z"/><path class="cls-5" d="M1078.05,632s25.28-4.64,38.49-18.83c0,0,3.37,15.74-1.27,19.53S1079.87,634.78,1078.05,632Z"/><path class="cls-5" d="M1216.21,859.75s20.44-7.1,32-18c0,0,7.73,21-6.54,23A40.9,40.9,0,0,1,1216.21,859.75Z"/></g></g></svg>